<svg xmlns="http://www.w3.org/2000/svg" viewBox="0 0 80 80"><path fill="#8bb7f0" d="M48,54H32C18.745,54,8,64.745,8,78v0h64v0C72,64.745,61.255,54,48,54z"/><path fill="#4e7ab5" d="M48,55c12.347,0,22.453,9.78,22.979,22L9.021,77C9.547,64.78,19.653,55,32,55H48 M48,54H32 C18.745,54,8,64.745,8,78v0h64v0C72,64.745,61.255,54,48,54L48,54z"/><path fill="#ffeea3" d="M30,56.124V44h20v12.124c0,0-2.133,5.876-10,5.876S30,56.124,30,56.124z"/><path fill="#ba9b48" d="M49,45v10.927C48.618,56.797,46.437,61,40,61c-6.444,0-8.623-4.212-9-5.072V45H49 M50,44H30v12.124 c0,0,2.133,5.876,10,5.876s10-5.876,10-5.876V44L50,44z"/><path fill="#ffeea3" d="M54.286,38.929c-2.875,0-5.214-2.339-5.214-5.214s2.339-5.214,5.214-5.214 c3.704,0,5.214,0.959,5.214,3.31C59.5,34.621,57.164,38.929,54.286,38.929z M25.714,38.929c-2.878,0-5.214-4.308-5.214-7.119 c0-2.351,1.511-3.31,5.214-3.31c2.875,0,5.214,2.339,5.214,5.214S28.589,38.929,25.714,38.929z"/><path fill="#ba9b48" d="M54.286,29C58.211,29,59,30.075,59,31.81c0,2.829-2.331,6.619-4.714,6.619 c-2.599,0-4.714-2.115-4.714-4.714S51.686,29,54.286,29 M25.714,29c2.599,0,4.714,2.115,4.714,4.714s-2.115,4.714-4.714,4.714 c-2.384,0-4.714-3.79-4.714-6.619C21,30.075,21.789,29,25.714,29 M54.286,28c-3.156,0-5.714,2.558-5.714,5.714 c0,3.156,2.558,5.714,5.714,5.714c3.156,0,5.714-4.463,5.714-7.619C60,28.654,57.442,28,54.286,28L54.286,28z M25.714,28 C22.558,28,20,28.654,20,31.81c0,3.156,2.558,7.619,5.714,7.619c3.156,0,5.714-2.558,5.714-5.714 C31.429,30.558,28.87,28,25.714,28L25.714,28z"/><g><path fill="#fff7d1" d="M40,53.5c-1.342,0-2.638-0.495-3.649-1.393l-0.09-0.081l-0.118-0.03 C29.288,50.237,24.5,44.071,24.5,37V18.403c0-3.929,3.196-7.125,7.125-7.125h16.749c3.929,0,7.125,3.196,7.125,7.125V37 c0,7.071-4.788,13.237-11.643,14.996l-0.118,0.03l-0.091,0.081C42.639,53.005,41.343,53.5,40,53.5z"/><path fill="#ba9b48" d="M48.375,11.778c3.653,0,6.625,2.972,6.625,6.625V37c0,6.842-4.633,12.81-11.268,14.512l-0.235,0.06 l-0.181,0.161C42.398,52.55,41.22,53,40,53c-1.22,0-2.398-0.45-3.316-1.267l-0.181-0.161l-0.235-0.06 C29.633,49.81,25,43.842,25,37V18.403c0-3.653,2.972-6.625,6.625-6.625H48.375 M48.375,10.778H31.625 c-4.211,0-7.625,3.414-7.625,7.625V37c0,7.46,5.112,13.708,12.019,15.48C37.079,53.423,38.47,54,40,54h0 c1.53,0,2.921-0.577,3.981-1.52C50.888,50.708,56,44.46,56,37V18.403C56,14.192,52.586,10.778,48.375,10.778L48.375,10.778z"/></g><g><path fill="#ffc49c" d="M56,36c0,0,4-9.535,4-15.97C60,10.995,54.247,8,50,8c0,0-2.506-6-11-6C27.362,2,20,9.962,20,20.623 C20,27.684,24,36,24,36h1c0,0,0-4.057,0-6c0-5.336,4.048-6.286,8.3-6.286c9.46,0,14.843-6.193,14.843-6.193S55,21.199,55,28 c0,2.137,0,8,0,8H56z"/><path fill="#a16a4a" d="M39,3c7.678,0,9.985,5.17,10.077,5.385L49.334,9H50c4.152,0,9,2.889,9,11.03 c0,4.238-1.84,9.983-3,13.181V28c0-7.316-7.083-11.199-7.384-11.361l-0.702-0.374l-0.524,0.598 c-0.051,0.059-5.229,5.851-14.09,5.851c-2.3,0-9.3,0-9.3,7.286v3.477c-1.152-2.863-3-8.183-3-12.855C21,10.082,28.234,3,39,3 M39,2 C27.362,2,20,9.962,20,20.623C20,27.684,24,36,24,36h1c0,0,0-4.057,0-6c0-5.336,4.048-6.286,8.3-6.286 c9.46,0,14.843-6.193,14.843-6.193S55,21.199,55,28c0,2.137,0,8,0,8h1c0,0,4-9.535,4-15.97C60,10.995,54.247,8,50,8 C50,8,47.494,2,39,2L39,2z"/></g></svg>